<?xml version="1.0" encoding="utf-8"?>
<!-- Generator: Adobe Illustrator 27.3.1, SVG Export Plug-In . SVG Version: 6.00 Build 0)  -->
<svg version="1.1" id="Layer_1" xmlns="http://www.w3.org/2000/svg" xmlns:xlink="http://www.w3.org/1999/xlink" x="0px" y="0px"
	 viewBox="0 0 200 200" style="enable-background:new 0 0 200 200;" xml:space="preserve">
<style type="text/css">
	.st0{fill:#F2F2F2;}
	.st1{fill:#FF0000;}
</style>
<g>
	<g>
		<path class="st0" d="M4,116.9V73.5h7.4c3.5,0,6,1,7.7,3.1c1.6,1.9,2.4,4.8,2.4,8.6v20c0,3.9-0.8,6.7-2.4,8.7
			c-1.7,2.1-4.3,3.1-7.7,3.1H4z M6.1,114.9h5.4c2.8,0,4.8-0.8,6.1-2.4c1.3-1.6,1.9-4,1.9-7.4v-20c0-3.4-0.6-5.8-1.9-7.4
			c-1.3-1.6-3.3-2.3-6.1-2.3H6.1V114.9z"/>
		<path class="st0" d="M26.2,116.9l3.4-15.1v-0.2l6.6-28.2h1.6l9.9,43.4h-2.1l-3-13.3H31.3l-2.9,13.3H26.2z M31.8,101.7h10.4L37,79
			L31.8,101.7z"/>
		<path class="st0" d="M51.5,85c0-3.3,0.8-6,2.3-8.1c1.7-2.3,4.1-3.5,7-3.5c3.1,0,5.4,1,7.1,3c1.6,1.9,2.3,4.8,2.3,8.5v1h-2.1v-1
			c0-3.3-0.6-5.7-1.9-7.2c-1.2-1.5-3-2.2-5.4-2.2c-2.3,0-4.1,0.9-5.3,2.6c-1.3,1.8-1.9,4-1.9,6.8c0,1.6,0.3,2.9,0.8,3.9
			s1.1,2,1.9,2.7c0.8,0.7,1.5,1.3,2.4,1.7c0.8,0.4,1.5,0.8,2.2,1l1,0.5c0.6,0.2,1.3,0.5,2.3,1c0.9,0.5,1.9,1.1,2.8,1.9
			c0.9,0.8,1.7,1.9,2.3,3.2c0.7,1.3,1,2.9,1,4.8c0,3.2-0.8,5.8-2.3,7.8c-1.7,2.2-4,3.3-7.1,3.3c-3.1,0-5.4-1-7-3
			c-1.6-1.8-2.3-4.7-2.3-8.5v-0.9h2.1v0.9c0,2.1,0.2,3.9,0.7,5.1s1.1,2.2,1.8,2.9c0.7,0.6,1.5,1.1,2.4,1.2c0.9,0.2,1.7,0.3,2.4,0.3
			c2.3,0,4.1-0.8,5.4-2.4c1.3-1.6,1.9-3.8,1.9-6.7c0-1.6-0.3-2.9-0.8-3.9c-0.5-1-1.2-1.9-1.9-2.6c-0.8-0.7-1.5-1.2-2.4-1.6
			c-0.8-0.4-1.5-0.7-2-0.9l-1.1-0.4c-0.6-0.3-1.4-0.6-2.4-1.1c-1-0.5-1.9-1.2-2.8-2.1c-0.9-0.9-1.7-2-2.3-3.3
			C51.8,88.5,51.5,86.9,51.5,85z"/>
		<path class="st0" d="M73.3,116.9V73.8h5.5v18.8H87V73.8h5.6v43.1H87V98.1h-8.3v18.8H73.3z"/>
		<path class="st0" d="M97.1,104.6V86.1c0-3.8,0.8-6.8,2.5-8.9c0.3-0.4,0.7-0.8,1.1-1.2c0.5-0.4,1-0.8,1.6-1.1
			c0.6-0.3,1.4-0.6,2.2-0.8c0.8-0.2,1.8-0.3,2.8-0.3c2.1,0,3.8,0.4,5,1.1c1.2,0.7,2.2,1.5,2.8,2.3c1.6,2.1,2.5,5.1,2.5,8.9v18.5
			c0,3.8-0.8,6.8-2.5,8.9c-0.6,0.8-1.6,1.5-2.8,2.3c-1.2,0.7-2.9,1.1-5,1.1c-2.1,0-3.7-0.4-5-1.1c-1.2-0.7-2.2-1.5-2.8-2.3
			C98,111.4,97.1,108.4,97.1,104.6z M102.6,104.6c0,1.7,0.2,3,0.5,3.9c0.3,0.9,0.7,1.6,1.3,2c0.5,0.4,1,0.7,1.6,0.7
			c0.5,0.1,1,0.1,1.4,0.1c0.4,0,0.8,0,1.4-0.1c0.6-0.1,1.1-0.3,1.6-0.7c0.5-0.4,0.9-1.1,1.3-2c0.3-0.9,0.5-2.2,0.5-3.9V86
			c0-1.7-0.2-3-0.5-3.9c-0.3-0.9-0.8-1.6-1.3-2c-0.5-0.4-1-0.7-1.6-0.7c-0.5-0.1-1-0.1-1.4-0.1c-0.4,0-0.9,0-1.4,0.1
			c-0.5,0.1-1,0.3-1.5,0.7c-0.5,0.4-0.9,1.1-1.3,2c-0.3,0.9-0.5,2.2-0.5,3.9V104.6z"/>
		<path class="st0" d="M120.8,105.4V73.8h5.5v31.6c0,1.5,0.1,2.6,0.4,3.4c0.3,0.8,0.6,1.4,1.1,1.8c0.4,0.4,0.9,0.6,1.3,0.6
			c0.5,0.1,0.9,0.1,1.3,0.1c0.4,0,0.8,0,1.3-0.1c0.5-0.1,0.9-0.3,1.4-0.6c0.4-0.4,0.8-1,1.1-1.8c0.3-0.8,0.4-2,0.4-3.4V73.8h5.5
			v31.6c0,3.6-0.8,6.3-2.3,8.2c-0.6,0.8-1.5,1.5-2.6,2.2c-1.2,0.7-2.7,1-4.7,1c-1.9,0-3.5-0.3-4.7-1c-1.2-0.7-2.1-1.4-2.6-2.2
			C121.6,111.7,120.8,109,120.8,105.4z"/>
		<path class="st0" d="M144.5,104.6v-2.7h5.5v2.7c0,2.5,0.4,4.3,1.3,5.4c0.2,0.3,0.5,0.5,1,0.8c0.5,0.3,1.3,0.4,2.4,0.4
			c1,0,1.9-0.2,2.5-0.7c0.6-0.4,1.1-1,1.4-1.6c0.3-0.6,0.5-1.3,0.6-2.1s0.1-1.4,0.1-2c0-1-0.2-1.9-0.5-2.6c-0.3-0.7-0.7-1.3-1.2-1.8
			c-0.5-0.5-1.1-0.9-1.7-1.2c-0.6-0.3-1.2-0.6-1.9-0.9l-1.1-0.5c-0.6-0.3-1.4-0.6-2.4-1.1c-1-0.5-1.9-1.2-2.8-2.1
			c-2.3-2.3-3.5-5.2-3.5-8.7c0-1.8,0.2-3.5,0.7-5c0.5-1.5,1.2-2.8,2.1-3.9c0.9-1.1,2-1.9,3.3-2.5c1.3-0.6,2.7-0.9,4.2-0.9
			c2.1,0,3.8,0.4,5,1.1c1.2,0.7,2.2,1.5,2.8,2.3c1.7,2.1,2.5,5.1,2.5,9v2.7h-5.6v-2.7c0-1.7-0.2-3-0.5-3.9c-0.3-0.9-0.7-1.6-1.3-2
			c-0.5-0.4-1-0.7-1.6-0.7c-0.5-0.1-1-0.1-1.4-0.1c-1.1,0-2,0.3-2.6,0.8c-0.6,0.5-1.1,1.2-1.4,2c-0.3,0.8-0.5,1.5-0.6,2.3
			s-0.1,1.3-0.1,1.7c0,1,0.2,1.9,0.5,2.6c0.3,0.7,0.7,1.3,1.2,1.9c0.5,0.5,1.1,1,1.7,1.3c0.6,0.4,1.3,0.7,2,1l0.9,0.4
			c0.6,0.2,1.3,0.6,2.3,1c1,0.4,1.9,1.1,2.8,2c2.4,2.2,3.6,5.1,3.6,8.6c0,3.3-0.8,6.1-2.5,8.3c-1.9,2.5-4.5,3.7-7.8,3.7
			c-3.4,0-6-1.1-7.8-3.3C145.3,111.5,144.5,108.5,144.5,104.6z"/>
		<path class="st0" d="M167.7,116.9V73.8h17.8v5.5h-12.3v13.2h12.3v5.5h-12.3v13.3h12.3v5.5H167.7z"/>
	</g>
	<g>
		<path class="st0" d="M6.8,127.1c-0.8,0-1.4-0.2-1.8-0.6s-0.7-1.1-0.7-2.2c0-1,0.2-1.8,0.7-2.1c0.4-0.4,1-0.6,1.8-0.6
			c0.8,0,1.4,0.2,1.8,0.6c0.4,0.4,0.6,1,0.6,1.8H7.8c0-0.6-0.1-1-0.3-1.1s-0.4-0.2-0.8-0.2c-0.3,0-0.6,0.1-0.8,0.2
			c-0.2,0.2-0.3,0.6-0.3,1.5c0,0.8,0.1,1.3,0.3,1.5c0.2,0.2,0.5,0.2,0.8,0.2c0.3,0,0.6-0.1,0.8-0.2c0.2-0.1,0.3-0.5,0.3-1.1h1.4
			c0,0.8-0.2,1.4-0.6,1.8C8.2,126.9,7.6,127.1,6.8,127.1z"/>
		<path class="st0" d="M15,121.6h1.9l1.7,5.4h-1.4l-0.4-1.3H15l-0.4,1.3h-1.4L15,121.6z M15.3,124.7h1.2l-0.5-1.8
			c0-0.1,0-0.1-0.1-0.2c0-0.1,0-0.2,0-0.2v-0.1h-0.1v0.1c0,0.1,0,0.2,0,0.2c0,0.1,0,0.2-0.1,0.2L15.3,124.7z"/>
		<path class="st0" d="M23.1,121.6h3.7v1.1h-2.3v1h2.2v1.1h-2.2v2.2h-1.4V121.6z"/>
		<path class="st0" d="M31.2,121.6h3.9v1.1h-2.5v1H35v1.1h-2.4v1.1h2.5v1.1h-3.9V121.6z"/>
		<path class="st0" d="M46,121.6h2.9c0.7,0,1.1,0.1,1.3,0.3c0.2,0.2,0.3,0.5,0.3,1c0,0,0,0,0,0c0,0.4-0.1,0.6-0.2,0.8
			c-0.1,0.2-0.3,0.3-0.7,0.3v0.1c0.3,0,0.5,0.1,0.7,0.3c0.2,0.2,0.3,0.5,0.3,1c0,0.5-0.1,0.9-0.3,1.2c-0.2,0.2-0.7,0.3-1.3,0.3h-3
			V121.6z M48.7,123.7c0.2,0,0.3-0.1,0.4-0.2c0.1-0.1,0.1-0.2,0.1-0.4c0-0.2,0-0.3-0.1-0.4c-0.1-0.1-0.2-0.1-0.3-0.1h-1.4v1.1H48.7z
			 M48.9,126c0.2,0,0.3-0.1,0.3-0.2c0.1-0.1,0.1-0.3,0.1-0.5c0-0.2,0-0.4-0.1-0.5c-0.1-0.1-0.2-0.2-0.4-0.2h-1.4v1.4H48.9z"/>
		<path class="st0" d="M56.7,121.6h1.9l1.7,5.4h-1.4l-0.4-1.3h-1.8l-0.4,1.3H55L56.7,121.6z M57.1,124.7h1.2l-0.5-1.8
			c0-0.1,0-0.1-0.1-0.2c0-0.1,0-0.2,0-0.2v-0.1h-0.1v0.1c0,0.1,0,0.2,0,0.2c0,0.1,0,0.2-0.1,0.2L57.1,124.7z"/>
		<path class="st0" d="M64.8,121.6h2.9c0.6,0,1,0.2,1.3,0.5s0.4,0.7,0.4,1.2c0,0.5-0.1,0.9-0.4,1.2c-0.2,0.2-0.5,0.4-1,0.4l0,0.1
			l0.5-0.1l0.8,2h-1.5l-0.9-2h-0.8v2h-1.4V121.6z M67.4,124.2c0.2,0,0.3-0.1,0.4-0.2c0.1-0.2,0.1-0.3,0.1-0.6c0-0.2,0-0.4-0.1-0.6
			c-0.1-0.2-0.2-0.2-0.4-0.2h-1.2v1.6H67.4z"/>
	</g>
	<g>
		<path class="st1" d="M190.3,113.1v-1.5l5.7,1.6v2.1l-5.7,1.6v-1.5l4.3-1.1c0.1,0,0.1,0,0.2,0c0.1,0,0.1,0,0.2,0l0.3,0v-0.1l-0.3,0
			c-0.1,0-0.1,0-0.2,0c-0.1,0-0.1,0-0.2,0L190.3,113.1z"/>
		<path class="st1" d="M190.3,108.4V107h5.7v1.4H190.3z"/>
		<path class="st1" d="M190.3,103.7v-4.1h1.2v2.7h1.1v-2.6h1.2v2.6h1.1v-2.7h1.2v4.1H190.3z"/>
		<path class="st1" d="M196,95v1.4h-5.7v-2.6L195,92v-0.1l-1.4,0.2c0,0-0.1,0-0.1,0c-0.1,0-0.1,0-0.2,0h-3v-1.4h5.7v2.5l-4.8,1.9
			v0.1l1.3-0.2c0,0,0.1,0,0.1,0c0.1,0,0.1,0,0.1,0H196z"/>
		<path class="st1" d="M196,86v1.4h-5.7v-2.6l4.7-1.8V83l-1.4,0.2c0,0-0.1,0-0.1,0c-0.1,0-0.1,0-0.2,0h-3v-1.4h5.7v2.5l-4.8,1.9v0.1
			l1.3-0.2c0,0,0.1,0,0.1,0c0.1,0,0.1,0,0.1,0H196z"/>
		<path class="st1" d="M190.3,76.8v-2l5.7-1.8v1.5l-1.4,0.4v1.9l1.4,0.4v1.5L190.3,76.8z M193.5,76.3v-1.2l-1.9,0.5
			c-0.1,0-0.2,0-0.2,0.1c-0.1,0-0.2,0-0.3,0H191v0.1h0.1c0.1,0,0.2,0,0.3,0c0.1,0,0.2,0,0.2,0.1L193.5,76.3z"/>
	</g>
</g>
</svg>
